<svg width="41" height="40" viewBox="0 0 41 40" fill="none" xmlns="http://www.w3.org/2000/svg">
<g clip-path="url(#clip0_1107_139)">
<path d="M40.5 20C40.5 8.9543 31.5457 0 20.5 0C9.45431 0 0.5 8.9543 0.5 20C0.5 29.9826 7.81371 38.2566 17.375 39.7569V25.7812H12.2969V20H17.375V15.5938C17.375 10.5812 20.3609 7.8125 24.9293 7.8125C27.1175 7.8125 29.4062 8.20312 29.4062 8.20312V13.125H26.8843C24.3998 13.125 23.625 14.6667 23.625 16.2483V20H29.1719L28.2852 25.7812H23.625V39.7569C33.1863 38.2566 40.5 29.9826 40.5 20Z" fill="black"/>
<path d="M28.2852 25.7812L29.1719 20H23.625V16.2483C23.625 14.6667 24.3998 13.125 26.8843 13.125H29.4062V8.20312C29.4062 8.20312 27.1175 7.8125 24.9293 7.8125C20.3609 7.8125 17.375 10.5812 17.375 15.5938V20H12.2969V25.7812H17.375V39.7569C19.4457 40.081 21.5543 40.081 23.625 39.7569V25.7812H28.2852Z" fill="white"/>
</g>
<defs>
<clipPath id="clip0_1107_139">
<rect width="40" height="40" fill="white" transform="translate(0.5)"/>
</clipPath>
</defs>
</svg>
