<svg width="41" height="40" viewBox="0 0 41 40" fill="none" xmlns="http://www.w3.org/2000/svg">
<path d="M32.5 18.0667V13.3333C30.2833 13.3333 28.5917 12.7417 27.5 11.5917C26.3796 10.2792 25.7519 8.61711 25.725 6.89165V6.54998L21.25 6.44165V25.6666C21.0965 26.5054 20.6893 27.277 20.0835 27.877C19.4776 28.4771 18.7022 28.8768 17.862 29.0222C17.0217 29.1676 16.1571 29.0517 15.3848 28.6902C14.6125 28.3286 13.9697 27.7388 13.5433 27.0004C13.1168 26.262 12.9272 25.4105 12.9999 24.5609C13.0727 23.7113 13.4045 22.9044 13.9503 22.2493C14.4962 21.5942 15.2299 21.1223 16.0525 20.8974C16.875 20.6725 17.7467 20.7054 18.55 20.9917V16.4083C18.0817 16.3316 17.6079 16.2926 17.1333 16.2916C15.4258 16.2916 13.7567 16.798 12.3369 17.7466C10.9172 18.6953 9.81061 20.0436 9.15718 21.6212C8.50374 23.1987 8.33277 24.9346 8.66589 26.6093C8.99901 28.284 9.82126 29.8223 11.0286 31.0297C12.236 32.2371 13.7744 33.0593 15.4491 33.3924C17.1238 33.7255 18.8596 33.5546 20.4372 32.9011C22.0147 32.2477 23.363 31.1411 24.3117 29.7214C25.2603 28.3017 25.7667 26.6325 25.7667 24.925C25.7657 24.5712 25.7435 24.2178 25.7 23.8666V16.2417C27.7349 17.5124 30.1023 18.1478 32.5 18.0667Z" fill="black"/>
</svg>
