<svg width="41" height="40" viewBox="0 0 41 40" fill="none" xmlns="http://www.w3.org/2000/svg">
<path d="M39.0683 8.44882C37.7015 9.05602 36.2331 9.46442 34.6919 9.64882C36.2659 8.70602 37.4727 7.21362 38.0411 5.43402C36.5699 6.30682 34.9391 6.94082 33.2019 7.28362C31.8123 5.80242 29.8327 4.87682 27.6415 4.87682C22.7983 4.81202 19.0747 9.54362 20.2207 14.2308C13.8891 13.9136 8.27588 10.88 4.51668 6.26922C2.46508 9.61482 3.62988 14.3992 6.87508 16.4416C5.62668 16.4016 4.45108 16.0588 3.42428 15.4888C3.37668 19.2108 6.01709 22.3532 9.53588 23.0544C8.45468 23.356 7.20908 23.4032 6.09508 23.1856C7.06508 26.212 9.87868 28.416 13.2123 28.4772C10.1983 30.8856 5.97868 32.1412 1.93188 31.6324C18.2047 41.6472 36.1939 28.5264 35.2651 12.392C36.7543 11.3168 38.0471 9.97562 39.0683 8.44882Z" fill="black"/>
</svg>
