<svg width="41" height="40" viewBox="0 0 41 40" fill="none" xmlns="http://www.w3.org/2000/svg">
<path d="M38.8332 16.1833C38.9156 13.7977 38.3939 11.43 37.3165 9.29997C36.5856 8.42597 35.5711 7.83616 34.4499 7.63331C29.8124 7.21252 25.1558 7.04005 20.4999 7.11664C15.861 7.03657 11.2211 7.20347 6.59988 7.61664C5.68625 7.78283 4.84075 8.21138 4.16655 8.84997C2.66655 10.2333 2.49988 12.6 2.33322 14.6C2.0914 18.1959 2.0914 21.804 2.33322 25.4C2.38143 26.5256 2.54904 27.643 2.83322 28.7333C3.03417 29.5751 3.44075 30.3539 4.01655 31C4.69533 31.6724 5.56052 32.1253 6.49988 32.3C10.0931 32.7435 13.7136 32.9273 17.3332 32.85C23.1665 32.9333 28.2832 32.85 34.3332 32.3833C35.2956 32.2194 36.1852 31.7659 36.8832 31.0833C37.3498 30.6165 37.6983 30.0451 37.8999 29.4166C38.4959 27.5877 38.7887 25.6735 38.7665 23.75C38.8332 22.8166 38.8332 17.1833 38.8332 16.1833ZM16.7332 24.75V14.4333L26.5999 19.6166C23.8332 21.15 20.1832 22.8833 16.7332 24.75Z" fill="black"/>
</svg>
