<svg width="84" height="46" viewBox="0 0 84 46" fill="none" xmlns="http://www.w3.org/2000/svg">
<path d="M50.816 0.199997C51.136 0.199997 51.392 0.519997 51.328 0.839996L45.76 44.488C45.696 44.744 45.504 44.936 45.184 44.936H33.728C33.472 44.936 33.28 44.808 33.216 44.552L26.432 22.408C26.24 21.896 25.536 21.896 25.408 22.408L18.816 44.552C18.752 44.808 18.496 44.936 18.304 44.936H6.72C6.464 44.936 6.272 44.744 6.208 44.488L0.64 0.839996C0.576 0.519997 0.832 0.199997 1.152 0.199997H11.072C11.328 0.199997 11.584 0.391998 11.584 0.711998L13.696 23.368C13.76 23.944 14.592 24.008 14.72 23.432L22.08 0.584C22.144 0.327999 22.336 0.199997 22.592 0.199997H29.376C29.568 0.199997 29.824 0.327999 29.888 0.584L37.184 23.432C37.376 24.008 38.208 23.944 38.272 23.368L40.32 0.711998C40.384 0.391998 40.576 0.199997 40.896 0.199997H50.816ZM82.481 22.984C82.993 24.584 83.249 26.248 83.249 27.976C83.249 28.936 83.121 30.088 82.929 31.112C82.929 31.368 82.673 31.56 82.417 31.56H58.737C58.289 31.56 58.033 32.008 58.225 32.392C59.697 34.824 62.321 36.36 65.201 36.36C67.633 36.36 69.937 35.336 71.537 33.224C71.665 33.096 71.857 32.968 72.113 33.032L81.137 34.632C81.521 34.696 81.713 35.08 81.521 35.4C81.329 35.848 81.073 36.36 80.945 36.616L80.817 36.872C80.625 37.128 80.497 37.32 80.369 37.64C80.113 37.96 79.921 38.216 79.729 38.472L79.601 38.6C79.537 38.728 79.473 38.792 79.409 38.856L79.345 38.984C79.217 39.176 79.089 39.304 78.961 39.432L78.833 39.56C78.641 39.816 78.449 40.008 78.257 40.2L78.129 40.328C77.937 40.52 77.809 40.648 77.681 40.776L77.617 40.84C77.489 40.968 77.297 41.096 77.169 41.224L76.977 41.416L76.785 41.224L76.913 41.416C76.657 41.672 76.465 41.864 76.209 41.992L76.017 42.184C75.697 42.376 75.441 42.568 75.121 42.76L75.057 42.824C74.737 43.016 74.417 43.208 74.033 43.4L73.969 43.464C73.905 43.528 73.777 43.592 73.713 43.592L73.649 43.656C73.521 43.72 73.329 43.784 73.201 43.848L73.137 43.912C72.817 44.04 72.497 44.168 72.177 44.296V44.36C71.921 44.424 71.793 44.488 71.601 44.552L71.345 44.616C71.153 44.68 70.897 44.808 70.705 44.872H70.641C70.385 44.936 70.129 45 69.873 45.064L69.681 45.128C69.169 45.256 68.657 45.384 68.145 45.448L67.953 45.512C67.377 45.576 66.865 45.64 66.289 45.64H66.097C65.777 45.704 65.521 45.704 65.265 45.704C65.009 45.704 64.753 45.704 64.433 45.64C64.369 45.64 64.305 45.64 64.241 45.64H64.177C63.985 45.64 63.793 45.64 63.601 45.576H63.537C63.473 45.576 63.409 45.576 63.345 45.576C63.025 45.576 62.769 45.512 62.577 45.448H62.513H62.385C62.193 45.448 61.937 45.384 61.745 45.32L61.489 45.256C61.297 45.256 61.105 45.192 60.913 45.128H60.849C60.785 45.128 60.785 45.128 60.721 45.128C60.401 45 60.145 44.936 59.953 44.872C59.697 44.808 59.441 44.744 59.185 44.616C59.121 44.616 59.057 44.616 58.993 44.552C58.801 44.488 58.609 44.424 58.417 44.36L58.353 44.296C58.289 44.296 58.289 44.296 58.225 44.232C57.969 44.168 57.713 44.04 57.521 43.912H57.457C57.265 43.848 57.009 43.72 56.817 43.592C56.753 43.528 56.689 43.528 56.625 43.464H56.561C56.433 43.4 56.241 43.272 56.113 43.208L55.857 43.08C55.665 42.952 55.473 42.824 55.217 42.632C53.105 41.224 51.249 39.304 49.905 37.128C49.777 36.936 49.713 36.808 49.585 36.616L49.521 36.488C49.457 36.36 49.329 36.168 49.265 35.976L49.201 35.848C49.137 35.784 49.137 35.784 49.137 35.72C48.753 35.016 48.497 34.248 48.241 33.48C48.049 33.096 47.985 32.712 47.857 32.392C47.793 32.136 47.729 31.816 47.665 31.56C47.473 30.664 47.409 29.768 47.345 28.872C47.345 28.552 47.345 28.296 47.345 27.976C47.345 27.656 47.345 27.336 47.345 27.08C47.409 25.48 47.729 23.944 48.241 22.408C48.369 21.896 48.561 21.512 48.753 21.064C48.817 20.808 48.945 20.616 49.073 20.36C49.073 20.296 49.073 20.232 49.137 20.168L49.201 20.04C49.201 20.04 49.265 19.976 49.265 19.912C49.329 19.848 49.329 19.784 49.393 19.72L49.521 19.464C49.649 19.208 49.777 19.016 49.905 18.76C51.249 16.584 53.105 14.728 55.217 13.256C55.473 13.128 55.665 13 55.857 12.872L56.113 12.744C56.241 12.616 56.433 12.552 56.561 12.488L56.625 12.424C56.689 12.424 56.753 12.36 56.817 12.36C57.009 12.232 57.265 12.104 57.457 11.976C57.713 11.912 57.969 11.784 58.225 11.656C58.289 11.656 58.289 11.656 58.353 11.592H58.417C58.609 11.528 58.801 11.464 58.993 11.4V11.336C59.057 11.336 59.121 11.336 59.185 11.272C59.441 11.208 59.697 11.144 59.953 11.016C60.209 10.952 60.465 10.888 60.721 10.824C60.785 10.824 60.785 10.824 60.849 10.76H60.913C61.105 10.696 61.297 10.696 61.489 10.632H61.617C61.873 10.568 62.257 10.504 62.513 10.44C62.577 10.44 62.577 10.44 62.577 10.44C62.769 10.44 63.025 10.376 63.345 10.376C63.409 10.376 63.473 10.312 63.537 10.312H63.601C63.793 10.312 63.985 10.312 64.177 10.312H64.241C64.305 10.248 64.369 10.248 64.433 10.248C64.753 10.248 65.009 10.248 65.265 10.248C65.521 10.248 65.777 10.248 66.097 10.248L66.289 10.312C66.865 10.312 67.377 10.376 67.889 10.44L68.145 10.504C68.657 10.568 69.169 10.632 69.681 10.76L69.873 10.824C70.129 10.888 70.385 11.016 70.641 11.08H70.705C70.897 11.144 71.153 11.208 71.345 11.272C71.409 11.336 71.473 11.336 71.537 11.4C71.793 11.464 71.921 11.528 72.113 11.592H72.241C72.497 11.72 72.817 11.912 73.137 12.04H73.201C73.329 12.168 73.521 12.232 73.649 12.296L73.585 12.552L73.713 12.296C73.777 12.36 73.905 12.424 73.969 12.488C74.289 12.616 74.737 12.936 75.057 13.128C75.377 13.32 75.697 13.512 75.953 13.768H76.017C76.081 13.832 76.145 13.896 76.209 13.896C76.465 14.088 76.657 14.28 76.913 14.472L77.105 14.6C77.297 14.792 77.425 14.92 77.617 15.112L77.681 15.176C77.809 15.304 77.937 15.432 78.129 15.56L78.193 15.688C78.449 15.944 78.641 16.136 78.833 16.328L78.641 16.584L78.833 16.392L78.961 16.52C79.089 16.648 79.217 16.776 79.345 16.904L79.409 17.032C79.537 17.224 79.729 17.416 79.857 17.608C79.985 17.736 80.049 17.928 80.177 18.056L80.369 18.312C80.433 18.504 80.497 18.632 80.625 18.76L80.945 19.272C81.585 20.488 82.097 21.704 82.481 22.984ZM72.113 24.136C72.433 24.136 72.689 23.816 72.625 23.496C72.241 21 69.361 19.016 65.713 19.016C62.321 19.016 59.185 21 58.737 23.496C58.673 23.816 58.929 24.136 59.249 24.136H72.113Z" fill="white"/>
</svg>
