<svg width="47" height="27" viewBox="0 0 47 27" fill="none" xmlns="http://www.w3.org/2000/svg">
<path d="M28.368 0.799998H22.788C22.608 0.799998 22.5 0.907999 22.464 1.052L21.276 13.832C21.276 14.156 20.808 14.228 20.7 13.904L16.56 1.016C16.524 0.872 16.416 0.799998 16.272 0.799998H12.456C12.312 0.799998 12.204 0.872 12.168 1.016L8.028 13.904C7.92 14.228 7.452 14.156 7.452 13.832L6.264 1.052C6.228 0.907999 6.12 0.799998 5.94 0.799998H0.36C0.18 0.799998 0.036 0.943999 0.072 1.124L3.204 25.748C3.24 25.928 3.348 26.036 3.528 26.036H10.008C10.152 26.036 10.26 25.928 10.296 25.82L14.04 13.328C14.112 13.04 14.508 13.04 14.616 13.328L18.432 25.82C18.504 25.928 18.612 26.036 18.756 26.036H25.2C25.344 26.036 25.488 25.928 25.524 25.748L28.656 1.124C28.692 0.943999 28.548 0.799998 28.368 0.799998ZM46.1292 13.796C45.9132 13.076 45.6252 12.392 45.2292 11.744L45.0492 11.42C45.0132 11.348 44.9412 11.276 44.9052 11.204L44.7972 11.024C44.7612 10.952 44.6892 10.88 44.6172 10.772C44.5452 10.664 44.4732 10.556 44.4012 10.484L44.3292 10.412C44.2572 10.304 44.1852 10.232 44.1132 10.16L44.0772 10.088L43.9692 10.196L44.0412 10.088C43.9332 9.944 43.8252 9.836 43.7172 9.692L43.6452 9.62C43.5732 9.548 43.5012 9.476 43.3932 9.404V9.368C43.2852 9.296 43.1772 9.188 43.0692 9.08L42.9972 9.044C42.8532 8.9 42.7092 8.792 42.5652 8.684C42.5292 8.684 42.4932 8.648 42.4572 8.612C42.2772 8.468 42.1332 8.36 41.9532 8.252H41.9172C41.7372 8.144 41.4852 7.964 41.3052 7.892C41.2692 7.856 41.1972 7.82 41.1612 7.784L41.0892 7.928L41.1612 7.784H41.1252C41.0532 7.748 40.9812 7.712 40.8732 7.64H40.8372C40.6572 7.568 40.4772 7.46 40.3332 7.388H40.2612C40.1532 7.352 40.0812 7.316 39.9372 7.28C39.9012 7.244 39.8652 7.244 39.8292 7.208C39.7212 7.172 39.5772 7.136 39.4692 7.1H39.4332C39.2892 7.064 39.1452 6.992 39.0012 6.956L38.8932 6.92C38.6052 6.848 38.3172 6.812 38.0292 6.776L37.8852 6.74C37.5972 6.704 37.2732 6.668 36.9852 6.632H36.8772C36.6972 6.632 36.5532 6.632 36.4092 6.632C36.2652 6.632 36.1212 6.632 35.9412 6.632C35.9052 6.632 35.8692 6.632 35.8332 6.668H35.7972C35.6892 6.668 35.5812 6.668 35.4732 6.668H35.4372C35.4012 6.668 35.3652 6.704 35.3292 6.704C35.1492 6.704 35.0052 6.74 34.8612 6.74H34.8252C34.7172 6.776 34.5012 6.812 34.3572 6.848H34.2852C34.1772 6.884 34.0692 6.884 33.9612 6.92H33.9252C33.8892 6.956 33.8532 6.956 33.8172 6.956C33.6732 6.992 33.5292 7.028 33.3852 7.064C33.2412 7.136 33.0972 7.172 32.9532 7.208C32.9532 7.244 32.9172 7.244 32.8812 7.244L32.8452 7.28C32.7372 7.316 32.6292 7.352 32.5572 7.388H32.5212C32.4852 7.424 32.4492 7.424 32.4132 7.424C32.2692 7.496 32.1612 7.568 32.0172 7.604C31.8732 7.676 31.7652 7.748 31.6212 7.82C31.5852 7.82 31.5492 7.856 31.5132 7.856V7.892C31.4052 7.928 31.3332 8 31.2252 8.036L31.1172 8.108C30.9732 8.18 30.8652 8.252 30.7572 8.324C29.5332 9.152 28.4892 10.232 27.7332 11.456C27.6612 11.564 27.5892 11.708 27.5172 11.816L27.4452 11.996C27.4092 11.996 27.4092 12.032 27.3732 12.068C27.3732 12.104 27.3372 12.14 27.3372 12.176L27.3012 12.248C27.3012 12.284 27.2652 12.32 27.2652 12.32C27.1932 12.464 27.1212 12.608 27.0852 12.752C26.9772 12.968 26.8692 13.22 26.7972 13.508C26.5092 14.336 26.3292 15.236 26.2932 16.1C26.2932 16.28 26.2932 16.46 26.2932 16.64C26.2932 16.784 26.2932 16.964 26.2932 17.144C26.3292 17.648 26.3652 18.152 26.4732 18.62C26.5092 18.8 26.5452 18.98 26.5812 19.124C26.6532 19.304 26.6892 19.52 26.7972 19.736C26.9412 20.168 27.0852 20.6 27.3012 20.996C27.3012 21.032 27.3372 21.032 27.3372 21.068L27.3732 21.14C27.4092 21.248 27.4812 21.356 27.5172 21.428L27.5532 21.5C27.6252 21.608 27.6612 21.716 27.7332 21.788C28.4892 23.048 29.5332 24.092 30.7572 24.92C30.8652 24.992 30.9732 25.064 31.1172 25.136L31.2252 25.208C31.3332 25.28 31.4052 25.316 31.5132 25.352V25.388C31.5492 25.388 31.5852 25.424 31.6212 25.424C31.7652 25.496 31.8732 25.568 32.0172 25.64C32.1612 25.676 32.2692 25.748 32.4132 25.82C32.4492 25.82 32.4852 25.82 32.5212 25.856H32.5572C32.6292 25.892 32.7372 25.928 32.8452 25.964L32.8812 26C32.9172 26 32.9532 26 32.9532 26.036C33.0972 26.072 33.2412 26.108 33.3852 26.18C33.5292 26.216 33.6732 26.252 33.8172 26.288C33.8532 26.288 33.8892 26.288 33.9252 26.324H33.9612C34.0692 26.36 34.1772 26.36 34.2852 26.396L34.4292 26.432C34.5372 26.432 34.6452 26.468 34.7892 26.504H34.8612C35.0052 26.54 35.1492 26.54 35.3292 26.54C35.3652 26.576 35.4012 26.576 35.4372 26.576H35.4732C35.5812 26.576 35.6892 26.576 35.7972 26.612H35.8332C35.8692 26.612 35.9052 26.612 35.9412 26.612C36.1212 26.612 36.2652 26.612 36.4092 26.612C36.5532 26.612 36.6972 26.612 36.8772 26.612H36.9852C37.2732 26.576 37.5972 26.54 37.8852 26.504H37.9932C38.3172 26.432 38.6052 26.396 38.8932 26.324L39.0012 26.288C39.1452 26.252 39.2892 26.216 39.4332 26.144H39.4692C39.5772 26.108 39.7212 26.072 39.8292 26.036L39.9732 25.964C40.0812 25.928 40.1532 25.892 40.2972 25.856H40.3332C40.4772 25.784 40.6572 25.712 40.8372 25.604H40.8732C40.9812 25.532 41.0532 25.496 41.1252 25.46H41.1612C41.1972 25.424 41.2692 25.388 41.3052 25.388L41.3412 25.352C41.5572 25.244 41.7372 25.136 41.9172 24.992L41.9892 24.956C42.1332 24.848 42.3132 24.74 42.4572 24.632L42.5652 24.56C42.7092 24.452 42.8532 24.344 42.9972 24.236L42.8892 24.092L42.9972 24.2L43.1052 24.128C43.2132 24.056 43.2852 23.948 43.3932 23.876V23.84C43.5012 23.768 43.5732 23.696 43.6452 23.624L43.7172 23.552C43.8252 23.408 43.9332 23.3 44.0772 23.156L44.1132 23.084C44.1852 23.012 44.2572 22.94 44.3292 22.832L44.4012 22.76C44.4372 22.724 44.4732 22.688 44.5092 22.652L44.5812 22.544C44.6892 22.4 44.7972 22.256 44.9052 22.076C45.0132 21.932 45.0852 21.788 45.1572 21.644L45.2292 21.5C45.3372 21.356 45.4812 21.068 45.5892 20.816C45.6612 20.636 45.5532 20.42 45.3732 20.384L40.2612 19.484C40.1172 19.448 40.0092 19.52 39.9372 19.592C39.0372 20.78 37.7412 21.392 36.3732 21.392C34.7532 21.392 33.2772 20.492 32.4492 19.124C32.3412 18.908 32.4852 18.656 32.7012 18.656H46.0572C46.2372 18.656 46.3452 18.548 46.3812 18.404C46.4892 17.828 46.5252 17.18 46.5252 16.64C46.5252 15.668 46.4172 14.732 46.1292 13.796ZM40.2612 14.444H32.9892C32.8092 14.444 32.6652 14.264 32.7012 14.084C32.9532 12.68 34.7532 11.6 36.6252 11.6C38.7132 11.6 40.3332 12.68 40.5852 14.084C40.5852 14.264 40.4412 14.444 40.2612 14.444Z" fill="#292929"/>
</svg>
